<?xml version="1.0" encoding="UTF-8"?>
<!DOCTYPE svg PUBLIC "-//W3C//DTD SVG 1.1//EN" "http://www.w3.org/Graphics/SVG/1.1/DTD/svg11.dtd">
<!-- Creator: CorelDRAW X7 -->
<svg xmlns="http://www.w3.org/2000/svg" xml:space="preserve" width="33.2833mm" height="8.8628mm" version="1.1" style="shape-rendering:geometricPrecision; text-rendering:geometricPrecision; image-rendering:optimizeQuality; fill-rule:evenodd; clip-rule:evenodd"
viewBox="0 0 572 152"
 xmlns:xlink="http://www.w3.org/1999/xlink">
 <defs>
  <style type="text/css">
   <![CDATA[
    .fil0 {fill:white}
   ]]>
  </style>
 </defs>
 <g id="Camada_x0020_1">
  <metadata id="CorelCorpID_0Corel-Layer"/>
  <path class="fil0" d="M281 62c-12,5 -40,37 -47,49 -10,18 -7,21 7,30 11,7 24,11 39,11 15,0 27,-4 38,-10 15,-8 20,-12 9,-30 -6,-10 -14,-20 -20,-27 -5,-5 -22,-21 -26,-23zm-39 -52c17,0 35,11 38,11 5,0 14,-10 38,-11 -11,-10 -41,-12 -59,-8 -3,1 -5,2 -8,3 -2,1 -3,2 -5,2l-4 3zm-23 110c0,-23 19,-51 33,-69l7 -9c-2,-4 -20,-19 -27,-20 -17,-4 -45,66 -13,98zm83 -78c4,6 9,11 13,17 11,15 28,43 27,62 5,-5 12,-22 14,-33 2,-14 0,-29 -5,-41 -2,-6 -5,-10 -8,-15 -3,-4 -7,-11 -12,-11 -9,2 -25,15 -29,21z"/>
  <path class="fil0" d="M69 113c3,0 6,-1 8,-4 3,-2 4,-5 4,-8 0,-3 -1,-6 -4,-8 -2,-2 -5,-3 -8,-3l-34 0c-5,0 -10,-1 -14,-3 -4,-2 -8,-4 -11,-7 -3,-4 -5,-7 -7,-11 -2,-5 -3,-9 -3,-14 0,-5 1,-9 3,-14 2,-4 4,-7 7,-10 3,-4 7,-6 11,-8 4,-2 9,-3 14,-3l51 0c4,0 6,2 9,4 2,2 3,5 3,8 0,3 -1,6 -3,8 -3,2 -5,3 -9,3l-51 0c-3,0 -6,2 -8,4 -3,2 -4,5 -4,8 0,3 1,6 4,8 2,2 5,4 8,4l34 0c5,0 10,0 14,2 4,2 8,5 11,8 3,3 5,6 7,11 2,4 3,8 3,13 0,5 -1,10 -3,14 -2,4 -4,8 -7,11 -3,3 -7,5 -11,7 -4,2 -9,3 -14,3l-57 0c-4,0 -6,-1 -9,-4 -2,-2 -3,-5 -3,-8 0,-3 1,-5 3,-8 3,-2 5,-3 9,-3l57 0zm78 -70l-29 0c-3,0 -5,-1 -8,-3 -2,-2 -3,-5 -3,-8 0,-3 1,-6 3,-8 3,-2 5,-4 8,-4l81 0c3,0 6,2 8,4l0 0c-4,6 -8,12 -10,19l-27 0 0 81c0,3 -1,6 -3,8 -2,3 -5,4 -8,4 -3,0 -6,-1 -8,-4 -3,-2 -4,-5 -4,-8l0 -81z"/>
  <path class="fil0" d="M389 124c0,3 -2,6 -4,8 -2,3 -5,4 -8,4 -3,0 -6,-1 -8,-4 -2,-2 -4,-5 -4,-8l0 -18c4,-10 5,-20 5,-30 0,-10 -1,-20 -5,-29l0 -15c0,-3 2,-6 4,-8 2,-2 5,-4 8,-4l58 0c4,0 9,1 13,3 4,2 8,4 11,8 3,3 6,6 8,11 1,4 2,8 2,13 0,6 -1,11 -3,16 -3,5 -6,9 -11,12 5,5 8,10 11,16 2,6 3,13 3,20l0 5c0,3 -1,6 -3,8 -2,3 -5,4 -8,4 -3,0 -6,-1 -8,-4 -3,-2 -4,-5 -4,-8l0 -5c0,-4 0,-8 -2,-12 -1,-3 -4,-6 -6,-9 -3,-3 -6,-5 -9,-6 -4,-2 -8,-2 -12,-2l-28 0 0 34zm0 -81l0 24 46 0c3,0 6,-2 8,-4 2,-2 3,-5 3,-8 0,-3 -1,-6 -3,-8 -2,-2 -5,-4 -8,-4l-46 0zm113 47c1,3 2,6 5,9 2,3 4,5 7,7 3,2 6,4 9,5 4,1 7,2 11,2l26 0c3,0 6,1 8,3 3,3 4,5 4,8 0,3 -1,6 -4,8 -2,3 -5,4 -8,4l-26 0c-8,0 -15,-2 -22,-5 -7,-3 -13,-7 -19,-12 -5,-5 -9,-11 -12,-18 -3,-7 -4,-15 -4,-23 0,-8 1,-15 4,-22 3,-7 7,-13 12,-19 6,-5 12,-9 19,-12 7,-3 14,-5 22,-5l26 0c3,0 6,2 8,4 3,2 4,5 4,8 0,3 -1,6 -4,8 -2,2 -5,3 -8,3l-26 0c-4,0 -7,1 -11,2 -3,1 -6,3 -9,5 -3,2 -5,4 -7,7 -3,3 -4,6 -5,10l41 0c3,0 6,1 8,3 2,2 4,5 4,8 0,3 -2,6 -4,8 -2,3 -5,4 -8,4l-41 0z"/>
 </g>
</svg>
